<mxfile host="app.diagrams.net" agent="Mozilla/5.0 (Windows NT 10.0; Win64; x64) AppleWebKit/537.36 (KHTML, like Gecko) Chrome/129.0.0.0 Safari/537.36" version="24.7.17">
  <diagram id="bCEU0Yp-OLdsGzc_yort" name="Page-1">
    <mxGraphModel dx="1843" dy="796" grid="1" gridSize="10" guides="1" tooltips="1" connect="1" arrows="1" fold="1" page="1" pageScale="1" pageWidth="850" pageHeight="1100" math="0" shadow="0">
      <root>
        <mxCell id="0" />
        <mxCell id="1" parent="0" />
        <mxCell id="AZiP55kx9JR08O7nJcqB-1" value="Start" style="strokeWidth=2;html=1;shape=mxgraph.flowchart.start_1;whiteSpace=wrap;" vertex="1" parent="1">
          <mxGeometry x="380" y="110" width="60" height="40" as="geometry" />
        </mxCell>
        <mxCell id="AZiP55kx9JR08O7nJcqB-3" value="Recieves task_id" style="rounded=1;whiteSpace=wrap;html=1;absoluteArcSize=1;arcSize=14;strokeWidth=2;" vertex="1" parent="1">
          <mxGeometry x="360" y="390" width="100" height="40" as="geometry" />
        </mxCell>
        <mxCell id="AZiP55kx9JR08O7nJcqB-9" value="End" style="strokeWidth=2;html=1;shape=mxgraph.flowchart.start_1;whiteSpace=wrap;" vertex="1" parent="1">
          <mxGeometry x="382.5" y="1100" width="55" height="40" as="geometry" />
        </mxCell>
        <mxCell id="AZiP55kx9JR08O7nJcqB-10" value="Access global tasks list" style="rounded=1;whiteSpace=wrap;html=1;absoluteArcSize=1;arcSize=14;strokeWidth=2;" vertex="1" parent="1">
          <mxGeometry x="365" y="250" width="90" height="40" as="geometry" />
        </mxCell>
        <mxCell id="AZiP55kx9JR08O7nJcqB-11" style="edgeStyle=orthogonalEdgeStyle;rounded=0;orthogonalLoop=1;jettySize=auto;html=1;" edge="1" parent="1" source="AZiP55kx9JR08O7nJcqB-12" target="AZiP55kx9JR08O7nJcqB-3">
          <mxGeometry relative="1" as="geometry" />
        </mxCell>
        <mxCell id="AZiP55kx9JR08O7nJcqB-12" value="&lt;div&gt;&lt;br&gt;&lt;/div&gt;User click&amp;nbsp;&lt;div&gt;Complete button&lt;div&gt;Post Request&lt;/div&gt;&lt;/div&gt;" style="html=1;strokeWidth=2;shape=manualInput;whiteSpace=wrap;rounded=1;size=26;arcSize=11;" vertex="1" parent="1">
          <mxGeometry x="340" y="300" width="140" height="70" as="geometry" />
        </mxCell>
        <mxCell id="AZiP55kx9JR08O7nJcqB-13" style="edgeStyle=orthogonalEdgeStyle;rounded=0;orthogonalLoop=1;jettySize=auto;html=1;entryX=0.502;entryY=0.233;entryDx=0;entryDy=0;entryPerimeter=0;" edge="1" parent="1" source="AZiP55kx9JR08O7nJcqB-10" target="AZiP55kx9JR08O7nJcqB-12">
          <mxGeometry relative="1" as="geometry" />
        </mxCell>
        <mxCell id="AZiP55kx9JR08O7nJcqB-14" style="edgeStyle=orthogonalEdgeStyle;rounded=0;orthogonalLoop=1;jettySize=auto;html=1;" edge="1" parent="1" source="AZiP55kx9JR08O7nJcqB-15" target="AZiP55kx9JR08O7nJcqB-10">
          <mxGeometry relative="1" as="geometry" />
        </mxCell>
        <mxCell id="AZiP55kx9JR08O7nJcqB-15" value="&lt;div&gt;&lt;br&gt;&lt;/div&gt;&lt;div&gt;&lt;span style=&quot;background-color: initial;&quot;&gt;&amp;nbsp; &amp;nbsp; &amp;nbsp;&amp;nbsp;&lt;/span&gt;&lt;/div&gt;&lt;div&gt;&lt;span style=&quot;background-color: initial;&quot;&gt;User selected task in&amp;nbsp; Task list&lt;/span&gt;&lt;br&gt;&lt;/div&gt;&lt;div&gt;&lt;span style=&quot;background-color: initial;&quot;&gt;&lt;br&gt;&lt;/span&gt;&lt;/div&gt;" style="html=1;strokeWidth=2;shape=manualInput;whiteSpace=wrap;rounded=1;size=26;arcSize=11;" vertex="1" parent="1">
          <mxGeometry x="340" y="160" width="140" height="70" as="geometry" />
        </mxCell>
        <mxCell id="AZiP55kx9JR08O7nJcqB-16" style="edgeStyle=orthogonalEdgeStyle;rounded=0;orthogonalLoop=1;jettySize=auto;html=1;entryX=0.498;entryY=0.2;entryDx=0;entryDy=0;entryPerimeter=0;" edge="1" parent="1" source="AZiP55kx9JR08O7nJcqB-1" target="AZiP55kx9JR08O7nJcqB-15">
          <mxGeometry relative="1" as="geometry" />
        </mxCell>
        <mxCell id="AZiP55kx9JR08O7nJcqB-17" value="Complete Button" style="rounded=1;whiteSpace=wrap;html=1;absoluteArcSize=1;arcSize=14;strokeWidth=2;" vertex="1" parent="1">
          <mxGeometry x="240" y="90" width="100" height="40" as="geometry" />
        </mxCell>
        <mxCell id="AZiP55kx9JR08O7nJcqB-27" style="edgeStyle=orthogonalEdgeStyle;rounded=0;orthogonalLoop=1;jettySize=auto;html=1;entryX=0.5;entryY=0;entryDx=0;entryDy=0;" edge="1" parent="1" source="AZiP55kx9JR08O7nJcqB-19" target="AZiP55kx9JR08O7nJcqB-26">
          <mxGeometry relative="1" as="geometry" />
        </mxCell>
        <mxCell id="AZiP55kx9JR08O7nJcqB-19" value="If task[id] = task_id" style="strokeWidth=2;html=1;shape=mxgraph.flowchart.decision;whiteSpace=wrap;" vertex="1" parent="1">
          <mxGeometry x="345" y="480" width="130" height="100" as="geometry" />
        </mxCell>
        <mxCell id="AZiP55kx9JR08O7nJcqB-21" value="" style="strokeWidth=2;html=1;shape=mxgraph.flowchart.start_2;whiteSpace=wrap;" vertex="1" parent="1">
          <mxGeometry x="405" y="450" width="10" height="10" as="geometry" />
        </mxCell>
        <mxCell id="AZiP55kx9JR08O7nJcqB-23" style="edgeStyle=orthogonalEdgeStyle;rounded=0;orthogonalLoop=1;jettySize=auto;html=1;entryX=0.5;entryY=0;entryDx=0;entryDy=0;entryPerimeter=0;" edge="1" parent="1" source="AZiP55kx9JR08O7nJcqB-3" target="AZiP55kx9JR08O7nJcqB-21">
          <mxGeometry relative="1" as="geometry" />
        </mxCell>
        <mxCell id="AZiP55kx9JR08O7nJcqB-24" style="edgeStyle=orthogonalEdgeStyle;rounded=0;orthogonalLoop=1;jettySize=auto;html=1;entryX=0.5;entryY=0;entryDx=0;entryDy=0;entryPerimeter=0;" edge="1" parent="1" source="AZiP55kx9JR08O7nJcqB-21" target="AZiP55kx9JR08O7nJcqB-19">
          <mxGeometry relative="1" as="geometry" />
        </mxCell>
        <mxCell id="AZiP55kx9JR08O7nJcqB-44" style="edgeStyle=orthogonalEdgeStyle;rounded=0;orthogonalLoop=1;jettySize=auto;html=1;" edge="1" parent="1" source="AZiP55kx9JR08O7nJcqB-26" target="AZiP55kx9JR08O7nJcqB-43">
          <mxGeometry relative="1" as="geometry" />
        </mxCell>
        <mxCell id="AZiP55kx9JR08O7nJcqB-26" value="&lt;div&gt;Toggle completion&lt;/div&gt;task[&#39;completed&#39;] = not task[&#39;completed]" style="rounded=1;whiteSpace=wrap;html=1;absoluteArcSize=1;arcSize=14;strokeWidth=2;" vertex="1" parent="1">
          <mxGeometry x="295" y="610" width="230" height="50" as="geometry" />
        </mxCell>
        <mxCell id="AZiP55kx9JR08O7nJcqB-40" style="edgeStyle=orthogonalEdgeStyle;rounded=0;orthogonalLoop=1;jettySize=auto;html=1;" edge="1" parent="1" source="AZiP55kx9JR08O7nJcqB-28" target="AZiP55kx9JR08O7nJcqB-39">
          <mxGeometry relative="1" as="geometry" />
        </mxCell>
        <mxCell id="AZiP55kx9JR08O7nJcqB-28" value="Updated tasks list" style="strokeWidth=2;html=1;shape=mxgraph.flowchart.display;whiteSpace=wrap;" vertex="1" parent="1">
          <mxGeometry x="347.5" y="940" width="125" height="60" as="geometry" />
        </mxCell>
        <mxCell id="AZiP55kx9JR08O7nJcqB-33" style="edgeStyle=orthogonalEdgeStyle;rounded=0;orthogonalLoop=1;jettySize=auto;html=1;" edge="1" parent="1" source="AZiP55kx9JR08O7nJcqB-29" target="AZiP55kx9JR08O7nJcqB-30">
          <mxGeometry relative="1" as="geometry" />
        </mxCell>
        <mxCell id="AZiP55kx9JR08O7nJcqB-29" value="Sort incomplete tasks&lt;div&gt;by Due date&lt;/div&gt;&lt;div&gt;[Insertion sort]&lt;/div&gt;" style="rounded=1;whiteSpace=wrap;html=1;absoluteArcSize=1;arcSize=14;strokeWidth=2;" vertex="1" parent="1">
          <mxGeometry x="347.5" y="770" width="125" height="50" as="geometry" />
        </mxCell>
        <mxCell id="AZiP55kx9JR08O7nJcqB-34" style="edgeStyle=orthogonalEdgeStyle;rounded=0;orthogonalLoop=1;jettySize=auto;html=1;" edge="1" parent="1" source="AZiP55kx9JR08O7nJcqB-30" target="AZiP55kx9JR08O7nJcqB-28">
          <mxGeometry relative="1" as="geometry" />
        </mxCell>
        <mxCell id="AZiP55kx9JR08O7nJcqB-30" value="Incompleted tasks&amp;nbsp;&lt;div&gt;+&amp;nbsp;&lt;/div&gt;&lt;div&gt;completed tasks&lt;/div&gt;&lt;div&gt;(move at the end of list)&lt;/div&gt;" style="rounded=1;whiteSpace=wrap;html=1;absoluteArcSize=1;arcSize=14;strokeWidth=2;" vertex="1" parent="1">
          <mxGeometry x="337.5" y="850" width="145" height="70" as="geometry" />
        </mxCell>
        <mxCell id="AZiP55kx9JR08O7nJcqB-36" style="edgeStyle=orthogonalEdgeStyle;rounded=0;orthogonalLoop=1;jettySize=auto;html=1;entryX=1;entryY=0.5;entryDx=0;entryDy=0;entryPerimeter=0;" edge="1" parent="1" source="AZiP55kx9JR08O7nJcqB-19" target="AZiP55kx9JR08O7nJcqB-21">
          <mxGeometry relative="1" as="geometry">
            <Array as="points">
              <mxPoint x="540" y="530" />
              <mxPoint x="540" y="455" />
            </Array>
          </mxGeometry>
        </mxCell>
        <mxCell id="AZiP55kx9JR08O7nJcqB-37" value="Yes" style="text;html=1;align=center;verticalAlign=middle;whiteSpace=wrap;rounded=0;" vertex="1" parent="1">
          <mxGeometry x="430" y="580" width="30" height="20" as="geometry" />
        </mxCell>
        <mxCell id="AZiP55kx9JR08O7nJcqB-38" value="No" style="text;html=1;align=center;verticalAlign=middle;whiteSpace=wrap;rounded=0;" vertex="1" parent="1">
          <mxGeometry x="490" y="510" width="30" height="20" as="geometry" />
        </mxCell>
        <mxCell id="AZiP55kx9JR08O7nJcqB-41" style="edgeStyle=orthogonalEdgeStyle;rounded=0;orthogonalLoop=1;jettySize=auto;html=1;" edge="1" parent="1" source="AZiP55kx9JR08O7nJcqB-39" target="AZiP55kx9JR08O7nJcqB-9">
          <mxGeometry relative="1" as="geometry" />
        </mxCell>
        <mxCell id="AZiP55kx9JR08O7nJcqB-39" value="redirected to url_for &#39;manage_tasks&#39;" style="rounded=1;whiteSpace=wrap;html=1;absoluteArcSize=1;arcSize=14;strokeWidth=2;" vertex="1" parent="1">
          <mxGeometry x="350.75" y="1030" width="118.5" height="40" as="geometry" />
        </mxCell>
        <mxCell id="AZiP55kx9JR08O7nJcqB-45" style="edgeStyle=orthogonalEdgeStyle;rounded=0;orthogonalLoop=1;jettySize=auto;html=1;" edge="1" parent="1" source="AZiP55kx9JR08O7nJcqB-43" target="AZiP55kx9JR08O7nJcqB-29">
          <mxGeometry relative="1" as="geometry" />
        </mxCell>
        <mxCell id="AZiP55kx9JR08O7nJcqB-43" value="arr = list of incomplete tasks&amp;nbsp;&lt;div&gt;key = dueDate&lt;/div&gt;" style="rounded=1;whiteSpace=wrap;html=1;absoluteArcSize=1;arcSize=14;strokeWidth=2;" vertex="1" parent="1">
          <mxGeometry x="330" y="690" width="160" height="50" as="geometry" />
        </mxCell>
      </root>
    </mxGraphModel>
  </diagram>
</mxfile>
